# xmcd
#
# Track frame offsets: 
#        150
#        19823
#        44275
#        72248
#        87035
#        99573
#        127508
#        145110
#        159073
#        176103
#        194598
#        208673
#
# Disc length: 3138 seconds
#
# Revision: 0
# Processed by: cddbd v1.4PL0 Copyright (c) Steve Scherf et al.
# Submitted via: ExactAudioCopy v0.90b3
#
DISCID=990c400c
DTITLE=Tinsley Ellis - Storm Warning
DYEAR=1994
DGENRE=Blues
TTITLE0=To The Devil For A Dime
TTITLE1=Cut You Loose
TTITLE2=A Quitter Never Wins
TTITLE3=Panhead
TTITLE4=The Next Miss Wrong
TTITLE5=Early In The Morning
TTITLE6=When I Howl
TTITLE7=Side Tracked
TTITLE8=Wanted Man
TTITLE9=The Sun Is Shining
TTITLE10=Bush Doctor
TTITLE11=Mercy Mercy Mercy
EXTD=
EXTT0=
EXTT1=
EXTT2=
EXTT3=
EXTT4=
EXTT5=
EXTT6=
EXTT7=
EXTT8=
EXTT9=
EXTT10=
EXTT11=
PLAYORDER=
